<svg xmlns="http://www.w3.org/2000/svg" width="145.28" height="146.895" viewBox="0 0 145.28 146.895">
  <g id="Group_77" data-name="Group 77" transform="matrix(-0.996, -0.087, 0.087, -0.996, -268.147, -332.495)">
    <g id="Group_69" data-name="Group 69" transform="translate(-447.301 -447.139)">
      <g id="Group_68" data-name="Group 68">
        <path id="Path_40" data-name="Path 40" d="M-447.3-283.81c.109-1.954,1.627-2.826,4.115-2.688l.387,1.421-.814-.045c-1.7-.094-2.495.4-2.549,1.375-.05.907.731,1.534,2.08,1.609,3.6.2,4.73-4.1,8.893-3.869,2.117.117,3.3,1.139,3.194,2.976-.108,1.954-1.627,2.826-4.115,2.687l-.388-1.421.814.045c1.675.093,2.494-.375,2.549-1.375.053-.954-.619-1.458-1.968-1.532-3.674-.2-4.8,4.1-8.939,3.866C-446.059-280.873-447.4-282-447.3-283.81Z" transform="translate(447.301 352.148)" fill="#fff"/>
        <path id="Path_41" data-name="Path 41" d="M-443.737-310.493c.4-1.915,2.035-2.548,4.474-2.035l.169,1.464-.8-.168c-1.664-.35-2.526.017-2.728.974s.441,1.64,2.105,1.99l7.933,1.666c1.641.344,2.526-.017,2.728-.974s-.464-1.644-2.105-1.989l-.8-.168.743-1.272c2.439.512,3.678,1.748,3.276,3.663-.383,1.824-1.893,2.554-4.469,2.012l-7.249-1.522C-443.031-307.394-444.12-308.67-443.737-310.493Z" transform="translate(445.238 367.634)" fill="#fff"/>
        <path id="Path_42" data-name="Path 42" d="M-422.229-332.268l-7.228-.783a4.853,4.853,0,0,1-.172.582l-.331.871,6.53,2.486-.489,1.284-13.931-5.3.82-2.155c.68-1.785,2.195-2.753,4.48-1.883l.827.315a3.3,3.3,0,0,1,2.34,2.56l7.643.741Zm-10.091-3.343-.61-.232c-1.654-.63-2.644-.06-3.083,1.094l-.282.74,5.267,2.005.282-.74C-430.306-333.9-430.666-334.981-432.32-335.611Z" transform="translate(441.712 382.297)" fill="#fff"/>
        <path id="Path_43" data-name="Path 43" d="M-424.409-360.744c.932-1.613,2.594-1.836,4.873-.519l6.413,3.706c2.278,1.317,2.915,2.868,1.983,4.481s-2.594,1.836-4.873.519l-6.412-3.706C-424.705-357.579-425.342-359.131-424.409-360.744Zm.988.571c-.49.847-.092,1.7,1.38,2.546l7.017,4.056c1.452.839,2.405.771,2.895-.075s.072-1.707-1.38-2.546l-7.017-4.056C-422-361.1-422.932-361.02-423.421-360.173Z" transform="translate(434.008 396.86)" fill="#fff"/>
        <path id="Path_44" data-name="Path 44" d="M-411.575-378l.858-1.073,10.749,8.6,2.327-2.91.891.713-3.186,3.983Z" transform="translate(426.173 406.885)" fill="#fff"/>
        <path id="Path_45" data-name="Path 45" d="M-395.326-396.531l1-.944,9.452,10.008,2.71-2.559.784.83-3.709,3.5Z" transform="translate(416.564 417.769)" fill="#fff"/>
        <path id="Path_46" data-name="Path 46" d="M-356.944-421.228l2.93,5.086c1.523,2.644,1.126,4.567-1.014,5.8l-1.554.9-7.442-12.917,1.554-.9C-360.33-424.492-358.468-423.871-356.944-421.228Zm-1.458.222c-.942-1.635-2.1-2.067-3.4-1.323l-.484.279,6.3,10.939.485-.279c1.292-.744,1.5-1.967.559-3.6Z" transform="translate(398.053 433.377)" fill="#fff"/>
        <path id="Path_47" data-name="Path 47" d="M-335.445-436.39c1.742-.66,3.171.219,4.1,2.68l2.623,6.926c.932,2.461.444,4.065-1.3,4.725s-3.171-.219-4.1-2.679l-2.623-6.926C-337.676-434.126-337.187-435.73-335.445-436.39Zm.4,1.067c-.915.347-1.143,1.255-.541,2.845l2.871,7.579c.594,1.568,1.375,2.119,2.29,1.772s1.135-1.277.541-2.844l-2.871-7.579C-333.353-435.14-334.126-435.669-335.041-435.322Z" transform="translate(382.195 440.907)" fill="#fff"/>
        <path id="Path_48" data-name="Path 48" d="M-312.789-444.8l1.354-.236c1,3.868,2.553,9.366,3.693,13.329l.206-.036c-.286-4.631-.783-10.2-1.054-13.789l1.606-.28c.96,3.473,2.4,8.873,3.67,13.333l.206-.036c-.267-4.114-.669-9.813-1.031-13.792l1.354-.236c.391,4.825.759,10.6.883,14.976l-2.065.36c-1.1-3.71-2.284-8.09-3.519-13.146l-.114.02c.547,5.177.909,9.7,1.133,13.562l-2.088.364C-309.919-434.57-311.526-440.129-312.789-444.8Z" transform="translate(367.754 446.788)" fill="#fff"/>
        <path id="Path_49" data-name="Path 49" d="M-274.4-447.139l1.095.018,3.161,11.468.192-11.411,1.3.022-.252,14.9-1.3-.022-2.971-10.3-.173,10.247-1.3-.022Z" transform="translate(345.202 447.139)" fill="#fff"/>
        <path id="Path_50" data-name="Path 50" d="M-234.028-441.02l-1.445,5.449,2.994.795-.293,1.1-2.994-.794-1.792,6.754-1.328-.352,3.823-14.41,4.773,1.266-.293,1.1Z" transform="translate(324.05 444.381)" fill="#fff"/>
        <path id="Path_51" data-name="Path 51" d="M-210.59-433.335c1.709.742,2.121,2.368,1.073,4.782l-2.949,6.795c-1.048,2.415-2.516,3.224-4.226,2.483s-2.121-2.368-1.073-4.782l2.948-6.795C-213.769-433.267-212.3-434.076-210.59-433.335Zm-.454,1.047c-.9-.389-1.695.1-2.372,1.662l-3.226,7.436c-.668,1.539-.492,2.478.406,2.868s1.7-.124,2.372-1.662l3.227-7.436C-209.962-430.98-210.148-431.9-211.045-432.287Z" transform="translate(311.897 439.132)" fill="#fff"/>
        <path id="Path_52" data-name="Path 52" d="M-195.869-407.634l2.243-6.916a4.778,4.778,0,0,1-.535-.287l-.785-.5-3.767,5.885-1.158-.741,8.037-12.554,1.942,1.243c1.608,1.03,2.247,2.711.928,4.77l-.477.745a3.3,3.3,0,0,1-2.984,1.768l-2.287,7.33Zm5.334-9.2.351-.549c.955-1.491.6-2.576-.441-3.242l-.667-.427-3.039,4.747.667.427C-192.624-415.208-191.49-415.339-190.535-416.83Z" transform="translate(300.976 432.716)" fill="#fff"/>
        <path id="Path_53" data-name="Path 53" d="M-160.952-395.679l.767.845-4.315,7.375,7.758-3.581.783.862L-167-380.162l-.861-.948,8.244-7.481-6.2,2.832-.485-.534,3.419-5.9-8.244,7.481-.861-.948Z" transform="translate(284.488 416.707)" fill="#fff"/>
        <path id="Path_54" data-name="Path 54" d="M-139.017-366.219c.991,1.578.412,3.152-1.816,4.552l-6.272,3.94c-2.229,1.4-3.9,1.238-4.889-.34s-.412-3.151,1.816-4.552l6.272-3.94C-141.677-367.958-140.008-367.8-139.017-366.219Zm-.966.607c-.52-.828-1.456-.873-2.9.031l-6.863,4.311c-1.42.892-1.806,1.767-1.285,2.6s1.476.861,2.9-.031l6.863-4.311C-139.829-363.921-139.463-364.783-139.983-365.612Z" transform="translate(272.939 400.05)" fill="#fff"/>
        <path id="Path_55" data-name="Path 55" d="M-141.227-334.889l5.76-4.438a4.9,4.9,0,0,1-.279-.54l-.363-.858L-142.544-338l-.536-1.266,13.727-5.814.9,2.123c.745,1.759.322,3.506-1.93,4.461l-.815.345a3.3,3.3,0,0,1-3.461-.228l-6.03,4.755Zm9.6-4.572.6-.254c1.63-.691,1.95-1.787,1.468-2.924l-.309-.729-5.19,2.2.309.729C-134.268-339.3-133.258-338.77-131.628-339.46Z" transform="translate(267.392 386.782)" fill="#fff"/>
        <path id="Path_56" data-name="Path 56" d="M-121.415-317.354l-5.462,1.388.751,2.957-1.106.281-.751-2.957-5.666,1.44.866,3.408-1.106.281-1.2-4.74,14.446-3.671,1.2,4.74-1.106.281Z" transform="translate(262.668 371.341)" fill="#fff"/>
        <path id="Path_57" data-name="Path 57" d="M-114.629-276.445c.033,2.049-1.368,3.214-3.953,3.256l-.685-2.015,1.141-.019c1.281-.021,1.856-.449,1.844-1.195-.011-.722-.625-1.178-1.743-1.16-3.376.056-4.331,4.4-8.336,4.469-2.212.036-3.557-1.037-3.591-3.063-.034-2.073,1.368-3.213,3.953-3.255l.685,2.015-1.141.019c-1.281.02-1.856.426-1.844,1.194.012.722.554,1.109,1.695,1.091,3.26-.054,4.237-4.4,8.36-4.469C-116.148-279.611-114.662-278.494-114.629-276.445Z" transform="translate(259.628 348.047)" fill="#fff"/>
        <path id="Path_58" data-name="Path 58" d="M-116.52-249.86c-.309,2.05-1.88,2.944-4.436,2.559l-.343-2.1,1.129.17c1.267.19,1.9-.137,2.016-.874s-.4-1.238-1.669-1.429l-8.2-1.234c-1.267-.191-1.905.137-2.016.874s.4,1.238,1.669,1.429l1.128.17-.946,1.907c-2.557-.385-3.8-1.7-3.486-3.752.3-1.981,1.761-2.938,4.5-2.526l7.094,1.068C-117.338-253.186-116.222-251.841-116.52-249.86Z" transform="translate(260.674 333.371)" fill="#fff"/>
        <path id="Path_59" data-name="Path 59" d="M-138.593-228.926l6.926.393.094-.288.252-.775-6.378-2.076.62-1.9,14.174,4.613-.872,2.68a3.25,3.25,0,0,1-4.5,2.234l-.975-.318a3.34,3.34,0,0,1-2.425-2.332l-7.537-.322Zm10.117,2.7.687.224c1.417.461,2.187-.023,2.5-1l.187-.576-4.651-1.514-.187.576C-130.253-227.535-129.894-226.683-128.476-226.221Z" transform="translate(265.105 320.843)" fill="#fff"/>
        <path id="Path_60" data-name="Path 60" d="M-132.958-200.242c-.931,1.773-2.627,2.2-5.081.909l-6.351-3.336c-2.454-1.289-3.067-2.926-2.135-4.7s2.627-2.2,5.081-.909l6.351,3.336C-132.64-203.653-132.026-202.016-132.958-200.242Zm-1.464-.769c.347-.66.026-1.3-1.108-1.9l-7.34-3.856c-1.134-.6-1.845-.5-2.191.165s-.026,1.3,1.108,1.9l7.34,3.856C-135.479-200.251-134.768-200.352-134.421-201.012Z" transform="translate(269.673 306.324)" fill="#fff"/>
        <path id="Path_61" data-name="Path 61" d="M-146.543-181.844l-1.2,1.607-10.629-7.915-2.087,2.8-1.326-.988,3.282-4.409Z" transform="translate(278.451 295.514)" fill="#fff"/>
        <path id="Path_62" data-name="Path 62" d="M-161.514-164.242l-1.415,1.418-9.38-9.362-2.468,2.473-1.171-1.168,3.883-3.891Z" transform="translate(286.829 286.068)" fill="#fff"/>
        <path id="Path_63" data-name="Path 63" d="M-196.1-141.861l-2.865-4.691c-1.639-2.683-1.3-4.719.947-6.091l1.888-1.153,7.77,12.721-1.888,1.154C-192.49-138.549-194.456-139.178-196.1-141.861Zm2.135-.349c.8,1.312,1.722,1.568,2.716.962l.338-.206-6.046-9.9-.338.206c-.994.607-1.186,1.543-.385,2.855Z" transform="translate(301.043 273.663)" fill="#fff"/>
        <path id="Path_64" data-name="Path 64" d="M-215.128-126.064c-1.86.744-3.426-.035-4.455-2.609l-2.663-6.662c-1.029-2.574-.432-4.217,1.428-4.961s3.426.035,4.455,2.609l2.664,6.662C-212.671-128.452-213.268-126.808-215.128-126.064Zm-.614-1.536c.692-.277.865-.973.39-2.163l-3.079-7.7c-.476-1.189-1.081-1.575-1.773-1.3s-.865.973-.39,2.163l3.079,7.7C-217.04-127.708-216.434-127.323-215.742-127.6Z" transform="translate(314.505 265.838)" fill="#fff"/>
        <path id="Path_65" data-name="Path 65" d="M-242.247-119.071l-1.97.358c-.919-3.62-2.385-9.082-3.424-12.846l-.206.037c.379,4.429.968,10.145,1.247,13.242l-2.246.408c-.829-3-2.312-8.551-3.492-12.834l-.206.038c.352,3.889.9,9.518,1.316,13.23l-1.97.358c-.464-5.028-.941-10.646-1.131-14.944l2.933-.533c.894,3.222,1.962,7.147,3.247,12.523l.115-.021c-.689-5.485-1.047-9.538-1.345-12.869l2.91-.529C-245.112-129.367-243.582-123.941-242.247-119.071Z" transform="translate(333.182 261.631)" fill="#fff"/>
        <path id="Path_66" data-name="Path 66" d="M-275.073-114.588l-1.607-.033-2.73-10.12-.2,10.061-1.886-.038.3-14.9,1.886.038,2.462,8.367.169-8.314,1.91.039Z" transform="translate(349.25 259.367)" fill="#fff"/>
        <path id="Path_67" data-name="Path 67" d="M-320.068-121.425l1.29-4.718-2.606-.712.436-1.6,2.606.713,1.769-6.47,1.932.528-3.931,14.378-4.987-1.364.436-1.6Z" transform="translate(374.123 262.079)" fill="#fff"/>
        <path id="Path_68" data-name="Path 68" d="M-345.233-128.628c-1.828-.82-2.357-2.487-1.222-5.016l2.936-6.547c1.134-2.529,2.731-3.243,4.559-2.423s2.357,2.487,1.223,5.016l-2.936,6.547C-341.808-128.521-343.4-127.808-345.233-128.628Zm.677-1.509c.68.3,1.3-.055,1.825-1.224l3.394-7.567c.524-1.169.38-1.872-.3-2.177s-1.3.055-1.826,1.224l-3.394,7.567C-345.38-131.145-345.236-130.442-344.556-130.137Z" transform="translate(388.015 267.241)" fill="#fff"/>
        <path id="Path_69" data-name="Path 69" d="M-363.762-157.219l-2.261,6.558.252.168.677.454,3.731-5.574,1.665,1.114-8.292,12.386-2.342-1.567a3.25,3.25,0,0,1-.927-4.937l.57-.852a3.34,3.34,0,0,1,2.9-1.7l2.359-7.166Zm-5.353,9-.4.6c-.829,1.239-.573,2.111.279,2.681l.5.337,2.721-4.064-.5-.337C-367.368-149.571-368.285-149.457-369.115-148.218Z" transform="translate(402.774 276.346)" fill="#fff"/>
        <path id="Path_70" data-name="Path 70" d="M-405.7-170.3l-1.091-1.274,4.375-7.031-7.6,3.264-1.091-1.274,11.321-9.7,1.213,1.415-7.2,6.169,5.4-2.261.652.761-3.1,5.015,7.235-6.2,1.212,1.415Z" transform="translate(425.902 292.895)" fill="#fff"/>
        <path id="Path_71" data-name="Path 71" d="M-424.62-194.78c-1-1.736-.451-3.4,1.951-4.78l6.216-3.582c2.4-1.384,4.114-1.026,5.113.71s.451,3.4-1.951,4.78l-6.216,3.582C-421.908-192.686-423.619-193.044-424.62-194.78Zm1.433-.825c.372.646,1.086.718,2.2.079l7.185-4.14c1.11-.639,1.405-1.294,1.033-1.939s-1.086-.719-2.2-.079l-7.185,4.14C-423.263-196.9-423.558-196.251-423.186-195.605Z" transform="translate(434.168 303.346)" fill="#fff"/>
        <path id="Path_72" data-name="Path 72" d="M-423.057-228.209l-5.679,3.986.105.284.282.765,6.292-2.325.695,1.879-13.983,5.167-.977-2.643a3.251,3.251,0,0,1,2.145-4.543l.961-.355a3.339,3.339,0,0,1,3.349.327l6.114-4.42Zm-9.616,4.15-.677.25c-1.4.516-1.7,1.374-1.347,2.335l.21.568,4.588-1.7-.21-.568C-430.464-224.131-431.275-224.577-432.673-224.06Z" transform="translate(440.976 318.78)" fill="#fff"/>
        <path id="Path_73" data-name="Path 73" d="M-442.741-243.464l4.8-.953-.522-2.627,1.622-.322.522,2.627,4.957-.985-.613-3.084,1.622-.322,1,5.049-14.621,2.9-1-5.049,1.622-.322Z" transform="translate(445.926 330.041)" fill="#fff"/>
      </g>
    </g>
    <circle id="Ellipse_8" data-name="Ellipse 8" cx="47.35" cy="47.35" r="47.35" transform="translate(-422.202 -422.107)" fill="none" stroke="#fff" stroke-miterlimit="10" stroke-width="2"/>
  </g>
</svg>
